<svg width="100" height="100" viewBox="0 0 100 100" fill="none" xmlns="http://www.w3.org/2000/svg">
<circle cx="50" cy="50" r="48.5" stroke="#8B7355" stroke-width="3"/>
<path d="M21.92 45V42.78C21.92 41.66 22 40.54 22.16 39.42C22.32 38.3 22.51 37.19 22.73 36.09C22.95 34.97 23.19 33.86 23.45 32.76C23.71 31.66 23.98 30.57 24.26 29.49C24.56 28.39 24.87 27.3 25.19 26.22C25.51 25.12 25.83 24.03 26.15 22.95H28.85C29.17 24.03 29.49 25.12 29.81 26.22C30.13 27.3 30.43 28.39 30.71 29.49C31.01 30.57 31.29 31.66 31.55 32.76C31.81 33.86 32.05 34.97 32.27 36.09C32.49 37.19 32.68 38.3 32.84 39.42C33 40.54 33.08 41.66 33.08 42.78V45H30.74V42.78C30.74 42.2 30.72 41.62 30.68 41.04C30.64 40.46 30.58 39.88 30.5 39.3H24.5C24.42 39.88 24.36 40.46 24.32 41.04C24.28 41.62 24.26 42.2 24.26 42.78V45H21.92ZM24.8 37.2H30.2C29.88 35.16 29.48 33.13 29 31.11C28.52 29.09 28.02 27.08 27.5 25.08C26.98 27.08 26.48 29.09 26 31.11C25.52 33.13 25.12 35.16 24.8 37.2ZM42.5 45.24C41.98 45.24 41.46 45.18 40.94 45.06C40.42 44.96 39.93 44.78 39.47 44.52C39.03 44.26 38.64 43.93 38.3 43.53C37.96 43.13 37.68 42.69 37.46 42.21C37.26 41.73 37.12 41.23 37.04 40.71C36.96 40.19 36.92 39.67 36.92 39.15V22.95H39.26V39.15C39.26 39.47 39.28 39.8 39.32 40.14C39.36 40.46 39.43 40.77 39.53 41.07C39.65 41.37 39.8 41.66 39.98 41.94C40.16 42.2 40.38 42.43 40.64 42.63C40.92 42.81 41.22 42.94 41.54 43.02C41.86 43.1 42.18 43.14 42.5 43.14C42.82 43.14 43.14 43.1 43.46 43.02C43.78 42.94 44.07 42.81 44.33 42.63C44.61 42.43 44.84 42.2 45.02 41.94C45.2 41.66 45.34 41.37 45.44 41.07C45.56 40.77 45.64 40.46 45.68 40.14C45.72 39.8 45.74 39.47 45.74 39.15V22.95H48.08V39.15C48.08 39.67 48.04 40.19 47.96 40.71C47.88 41.23 47.73 41.73 47.51 42.21C47.31 42.69 47.04 43.13 46.7 43.53C46.36 43.93 45.96 44.26 45.5 44.52C45.06 44.78 44.58 44.96 44.06 45.06C43.54 45.18 43.02 45.24 42.5 45.24ZM56.33 45V25.05H51.74V22.95H63.26V25.05H58.67V45H56.33ZM72.5 45.24C71.96 45.24 71.42 45.19 70.88 45.09C70.36 44.99 69.87 44.82 69.41 44.58C68.95 44.32 68.53 43.99 68.15 43.59C67.79 43.19 67.5 42.75 67.28 42.27C67.06 41.79 66.9 41.29 66.8 40.77C66.72 40.23 66.68 39.69 66.68 39.15V28.8C66.68 28.26 66.72 27.73 66.8 27.21C66.9 26.67 67.06 26.16 67.28 25.68C67.5 25.2 67.79 24.76 68.15 24.36C68.53 23.96 68.95 23.64 69.41 23.4C69.87 23.14 70.36 22.96 70.88 22.86C71.42 22.76 71.96 22.71 72.5 22.71C73.04 22.71 73.57 22.76 74.09 22.86C74.63 22.96 75.13 23.14 75.59 23.4C76.05 23.64 76.46 23.96 76.82 24.36C77.2 24.76 77.5 25.2 77.72 25.68C77.94 26.16 78.09 26.67 78.17 27.21C78.27 27.73 78.32 28.26 78.32 28.8V39.15C78.32 39.69 78.27 40.23 78.17 40.77C78.09 41.29 77.94 41.79 77.72 42.27C77.5 42.75 77.2 43.19 76.82 43.59C76.46 43.99 76.05 44.32 75.59 44.58C75.13 44.82 74.63 44.99 74.09 45.09C73.57 45.19 73.04 45.24 72.5 45.24ZM72.5 43.14C72.84 43.14 73.17 43.11 73.49 43.05C73.83 42.97 74.14 42.84 74.42 42.66C74.7 42.48 74.94 42.26 75.14 42C75.36 41.72 75.53 41.43 75.65 41.13C75.79 40.81 75.88 40.49 75.92 40.17C75.96 39.83 75.98 39.49 75.98 39.15V28.8C75.98 28.46 75.96 28.13 75.92 27.81C75.88 27.47 75.79 27.15 75.65 26.85C75.53 26.53 75.36 26.24 75.14 25.98C74.94 25.7 74.7 25.47 74.42 25.29C74.14 25.11 73.83 24.99 73.49 24.93C73.17 24.85 72.84 24.81 72.5 24.81C72.16 24.81 71.82 24.85 71.48 24.93C71.16 24.99 70.86 25.11 70.58 25.29C70.3 25.47 70.05 25.7 69.83 25.98C69.63 26.24 69.46 26.53 69.32 26.85C69.2 27.15 69.12 27.47 69.08 27.81C69.04 28.13 69.02 28.46 69.02 28.8V39.15C69.02 39.49 69.04 39.83 69.08 40.17C69.12 40.49 69.2 40.81 69.32 41.13C69.46 41.43 69.63 41.72 69.83 42C70.05 42.26 70.3 42.48 70.58 42.66C70.86 42.84 71.16 42.97 71.48 43.05C71.82 43.11 72.16 43.14 72.5 43.14ZM29.42 78V55.95H31.76V65.55H38.24V55.95H40.58V78H38.24V67.65H31.76V78H29.42ZM50 78.24C49.48 78.24 48.96 78.18 48.44 78.06C47.92 77.96 47.43 77.78 46.97 77.52C46.53 77.26 46.14 76.93 45.8 76.53C45.46 76.13 45.18 75.69 44.96 75.21C44.76 74.73 44.62 74.23 44.54 73.71C44.46 73.19 44.42 72.67 44.42 72.15V55.95H46.76V72.15C46.76 72.47 46.78 72.8 46.82 73.14C46.86 73.46 46.93 73.77 47.03 74.07C47.15 74.37 47.3 74.66 47.48 74.94C47.66 75.2 47.88 75.43 48.14 75.63C48.42 75.81 48.72 75.94 49.04 76.02C49.36 76.1 49.68 76.14 50 76.14C50.32 76.14 50.64 76.1 50.96 76.02C51.28 75.94 51.57 75.81 51.83 75.63C52.11 75.43 52.34 75.2 52.52 74.94C52.7 74.66 52.84 74.37 52.94 74.07C53.06 73.77 53.14 73.46 53.18 73.14C53.22 72.8 53.24 72.47 53.24 72.15V55.95H55.58V72.15C55.58 72.67 55.54 73.19 55.46 73.71C55.38 74.23 55.23 74.73 55.01 75.21C54.81 75.69 54.54 76.13 54.2 76.53C53.86 76.93 53.46 77.26 53 77.52C52.56 77.78 52.08 77.96 51.56 78.06C51.04 78.18 50.52 78.24 50 78.24ZM59.42 78V55.95H64.49C65.01 55.95 65.52 56 66.02 56.1C66.54 56.18 67.03 56.34 67.49 56.58C67.95 56.8 68.36 57.1 68.72 57.48C69.1 57.84 69.41 58.26 69.65 58.74C69.89 59.2 70.05 59.69 70.13 60.21C70.23 60.71 70.28 61.22 70.28 61.74C70.28 62.22 70.23 62.71 70.13 63.21C70.05 63.69 69.89 64.14 69.65 64.56C69.41 64.98 69.11 65.36 68.75 65.7C68.39 66.04 67.99 66.31 67.55 66.51C68.07 66.71 68.56 66.98 69.02 67.32C69.5 67.66 69.89 68.07 70.19 68.55C70.51 69.03 70.73 69.55 70.85 70.11C70.99 70.67 71.06 71.24 71.06 71.82C71.06 72.38 71 72.95 70.88 73.53C70.78 74.09 70.59 74.62 70.31 75.12C70.03 75.62 69.67 76.06 69.23 76.44C68.81 76.82 68.34 77.13 67.82 77.37C67.3 77.61 66.75 77.78 66.17 77.88C65.61 77.96 65.05 78 64.49 78H59.42ZM61.76 65.52H64.49C64.97 65.52 65.44 65.44 65.9 65.28C66.38 65.12 66.78 64.86 67.1 64.5C67.42 64.12 67.64 63.7 67.76 63.24C67.88 62.76 67.94 62.27 67.94 61.77C67.94 61.29 67.88 60.82 67.76 60.36C67.64 59.88 67.42 59.46 67.1 59.1C66.78 58.72 66.38 58.45 65.9 58.29C65.44 58.13 64.97 58.05 64.49 58.05H61.76V65.52ZM64.49 75.9C64.87 75.9 65.24 75.87 65.6 75.81C65.98 75.75 66.33 75.64 66.65 75.48C66.99 75.32 67.3 75.11 67.58 74.85C67.86 74.57 68.09 74.27 68.27 73.95C68.45 73.61 68.57 73.26 68.63 72.9C68.69 72.52 68.72 72.14 68.72 71.76C68.72 71.4 68.69 71.03 68.63 70.65C68.57 70.27 68.45 69.92 68.27 69.6C68.09 69.26 67.86 68.96 67.58 68.7C67.32 68.44 67.02 68.23 66.68 68.07C66.34 67.89 65.98 67.77 65.6 67.71C65.24 67.65 64.87 67.62 64.49 67.62H61.76V75.9H64.49Z" fill="#B78A52"/>
</svg>
